# xmcd CD database file
#
# Track frame offsets:
#	150
#	20881
#	36471
#	55102
#	69393
#	85813
#	102660
#	119644
#	133643
#	149602
#	165965
#
# Disc length: 2502 seconds
#
# Revision: 1
# Processed by: cddbd v1.5.1PL2 Copyright (c) Steve Scherf et al.
# Submitted via: CDex 1.51
#
DISCID=a209c40b
DTITLE=Alex Whitmore - Tale By The World
DYEAR=2001
DGENRE=Country
TTITLE0=Alex Whitmore =Life's Lonesome Highway
TTITLE1=Alex Whitmore =My Kind Of Girl
TTITLE2=Alex Whitmore =Apache Wind
TTITLE3=Alex Whitmore =Never Gonna Get Texas Out Of You
TTITLE4=Alex Whitmore =Fannin County Fair
TTITLE5=Alex Whitmore =Hard Row To Hoe
TTITLE6=Alex Whitmore =By My Side
TTITLE7=Alex Whitmore =In My Dreams
TTITLE8=Alex Whitmore =Just To See Your Smile
TTITLE9=Alex Whitmore =Waiting Restlessly For Morning
TTITLE10=Alex Whitmore =Spanish Fantasy
EXTD=YEAR: 2001
EXTT0=
EXTT1=
EXTT2=
EXTT3=
EXTT4=
EXTT5=
EXTT6=
EXTT7=
EXTT8=
EXTT9=
EXTT10=
PLAYORDER=
